<svg width="775" height="283" viewBox="0 0 775 283" fill="none" xmlns="http://www.w3.org/2000/svg">
<g clip-path="url(#clip0_61_421)">
<path fill-rule="evenodd" clip-rule="evenodd" d="M47.9378 197.178C34.3704 197.178 20.8031 197.178 7.23583 197.178C-6.61016e-05 197.178 -1.80904 195.369 -6.634e-05 188.133C3.61788 168.234 16.2807 157.381 36.1794 156.476C53.3647 156.476 70.5499 156.476 87.7352 156.476C94.9711 156.476 103.111 155.572 103.111 146.527C103.111 136.577 94.9711 135.673 86.8307 135.673C75.9769 135.673 65.123 134.768 55.1737 131.15C34.3704 123.914 22.6121 108.538 22.6121 85.0215C22.6121 62.4094 34.3704 46.1286 56.9826 39.7972C85.0217 31.6568 113.061 36.1792 142.004 35.2748C148.336 35.2748 148.336 39.7972 148.336 43.4151C147.431 60.6004 133.864 74.1677 114.87 75.0722C103.111 75.9767 91.3531 75.0722 79.5948 75.0722C72.3589 75.0722 65.123 76.8812 65.123 85.926C65.123 94.0664 72.3589 94.9709 79.5948 95.8754C90.4487 96.7799 102.207 97.6844 112.156 101.302C132.055 108.538 143.813 122.106 144.718 140.195C145.622 162.807 136.577 179.088 116.679 189.038C106.729 193.56 96.7801 196.273 85.9262 196.273C73.2634 196.273 60.6006 196.273 47.9378 197.178C47.9378 196.273 47.9378 197.178 47.9378 197.178Z" fill="#231F20"/>
<path fill-rule="evenodd" clip-rule="evenodd" d="M532.743 150.145C532.743 161.903 531.838 174.566 532.743 186.324C533.647 197.178 528.22 198.083 520.08 196.274C503.799 192.656 492.041 179.088 491.137 161.903C491.137 147.431 491.137 132.96 491.137 118.488C491.137 94.0667 473.047 75.0724 450.435 75.9769C427.822 75.9769 410.637 94.9712 410.637 119.392C410.637 133.864 410.637 148.336 410.637 162.808C410.637 175.471 405.21 185.42 394.356 191.751C388.025 196.274 378.98 200.796 371.744 197.178C365.413 194.465 369.031 185.42 369.031 179.088C368.126 158.285 369.031 138.387 369.031 117.583C369.031 71.4545 405.21 36.1795 450.435 36.1795C496.563 36.1795 531.838 71.4545 531.838 117.583C532.743 127.533 532.743 138.387 532.743 150.145Z" fill="#231F20"/>
<path fill-rule="evenodd" clip-rule="evenodd" d="M362.699 128.437C362.699 148.336 362.699 168.235 362.699 188.134C362.699 195.369 359.986 196.274 353.654 196.274C335.564 194.465 321.093 179.993 320.188 160.999C319.284 121.201 320.188 81.404 320.188 42.5111C320.188 36.1797 321.997 35.2752 328.329 35.2752C349.132 37.9887 361.795 51.556 361.795 72.3592C363.604 91.3534 362.699 110.348 362.699 128.437Z" fill="#231F20"/>
<path fill-rule="evenodd" clip-rule="evenodd" d="M611.433 179.993C615.956 189.943 611.433 193.561 602.389 195.37C570.731 202.606 549.024 186.325 549.024 153.763C548.119 127.533 549.024 100.399 549.024 74.1684C549.024 66.028 549.024 60.6011 538.17 61.5056C534.552 62.4101 528.221 64.2191 528.221 56.0787C527.316 47.0338 533.648 48.8428 538.17 49.7473C547.215 50.6517 549.024 47.0338 549.024 38.8934C548.119 29.8485 549.024 19.8992 549.024 10.8543C549.024 4.5229 550.833 2.71393 557.164 2.71393C563.496 2.71393 563.496 7.23636 563.496 10.8543C563.496 20.8037 563.496 30.753 563.496 39.7979C563.496 47.0338 565.305 49.7473 573.445 49.7473C584.299 48.8428 596.057 49.7473 606.911 49.7473C611.433 49.7473 615.051 48.8428 615.051 56.0787C615.051 62.4101 611.433 62.4101 606.911 62.4101C596.962 62.4101 586.108 63.3146 576.158 62.4101C565.305 61.5056 563.496 66.028 563.496 75.9774C564.4 100.399 563.496 125.724 563.496 150.145C563.496 179.089 577.967 189.038 606.007 182.707C606.911 180.898 609.624 180.898 611.433 179.993Z" fill="#7A7272"/>
<path fill-rule="evenodd" clip-rule="evenodd" d="M774.241 99.4936C774.241 128.437 774.241 157.381 774.241 186.324C774.241 192.656 775.145 196.274 766.1 196.274C757.96 196.274 757.056 192.656 757.056 186.324C757.056 127.533 757.056 68.741 757.056 9.94936C757.056 3.61795 756.151 0 765.196 0C773.336 0 774.241 3.61795 774.241 9.94936C774.241 39.7974 774.241 69.6455 774.241 99.4936Z" fill="#7A7272"/>
<path fill-rule="evenodd" clip-rule="evenodd" d="M235.167 35.2749C192.656 34.3704 154.667 66.9319 152.858 108.538C151.954 130.246 152.858 151.049 152.858 172.757H151.954C151.954 190.847 151.954 208.936 151.954 227.026C151.954 234.262 153.763 236.975 161.903 235.167C178.184 231.549 190.847 223.408 193.56 206.223C194.465 198.987 198.083 197.178 204.414 197.178C217.077 197.178 229.74 197.178 242.402 197.178C284.913 195.369 317.475 158.285 317.475 113.965C315.666 70.5499 279.486 36.1794 235.167 35.2749ZM238.785 156.476C232.453 157.381 226.122 156.476 218.886 156.476C193.56 156.476 193.56 156.476 193.56 130.246C193.56 121.201 192.656 112.156 195.369 104.016C201.701 84.1172 219.79 72.3588 240.593 75.0723C260.492 78.6902 274.06 95.8755 274.06 116.679C273.155 137.482 257.779 154.667 238.785 156.476Z" fill="#231F20"/>
<path fill-rule="evenodd" clip-rule="evenodd" d="M691.028 47.0336C649.422 39.7977 615.051 66.9323 609.624 112.157C605.102 142.909 622.287 176.375 648.517 189.943C675.652 203.51 710.927 198.987 733.539 176.375C736.252 173.662 743.488 171.853 736.252 166.426C731.73 161.903 729.016 162.808 725.398 166.426C721.78 170.044 717.258 172.757 713.64 175.471C677.461 197.178 632.236 176.375 625.905 135.673C625 128.437 625.905 126.628 633.141 126.628C650.326 126.628 667.511 126.628 684.696 126.628C701.882 126.628 719.067 126.628 736.252 126.628C740.775 126.628 744.393 126.628 744.393 120.297C746.202 88.64 727.207 53.365 691.028 47.0336ZM723.589 114.87C691.028 114.87 658.466 114.87 625 114.87C630.427 79.5951 650.326 58.7919 678.365 58.7919C708.213 58.7919 724.494 81.4041 729.016 108.539C729.921 113.966 728.112 114.87 723.589 114.87Z" fill="#7A7272"/>
<path d="M245.116 236.976L248.734 237.88C247.83 240.594 246.925 243.307 244.212 245.116C242.403 246.925 239.689 247.829 236.976 247.829C234.262 247.829 231.549 246.925 229.74 246.021C227.931 245.116 226.122 243.307 225.217 240.594C224.313 237.88 223.408 236.071 223.408 232.453C223.408 229.74 224.313 227.026 225.217 224.313C226.122 222.504 227.931 220.695 229.74 218.886C231.549 217.981 234.262 217.077 236.976 217.077C239.689 217.077 242.403 217.981 244.212 218.886C246.021 220.695 247.83 222.504 248.734 225.217L245.116 226.122C244.212 224.313 243.307 222.504 242.403 221.599C241.498 220.695 239.689 219.79 237.88 219.79C236.071 219.79 234.262 220.695 232.453 221.599C230.644 222.504 229.74 224.313 229.74 226.122C228.835 227.931 228.835 229.74 228.835 231.549C228.835 234.262 228.835 236.071 229.74 237.88C230.644 239.689 231.549 241.498 233.358 242.403C235.167 243.307 235.167 244.212 236.976 244.212C238.785 244.212 240.594 243.307 242.403 242.403C244.212 240.594 245.116 238.785 245.116 236.976Z" fill="black"/>
<path d="M253.256 246.925V217.981H256.874V227.931C258.683 226.122 260.492 225.217 263.206 225.217C265.015 225.217 265.919 225.217 266.824 226.122C267.728 227.026 268.633 227.931 269.537 228.835C270.442 229.74 270.442 231.548 270.442 233.357V246.925H266.824V233.357C266.824 231.548 266.824 230.644 265.919 229.74C265.015 228.835 264.11 228.835 262.301 228.835C261.397 228.835 260.492 228.835 259.588 229.74C258.683 230.644 257.779 230.644 257.779 231.549C257.779 232.453 256.874 233.357 256.874 235.166V246.925H253.256Z" fill="black"/>
<path d="M289.436 244.212C288.532 245.116 286.723 246.021 285.818 246.925C284.914 247.829 283.105 247.829 282.2 247.829C279.487 247.829 278.582 246.925 276.773 246.021C275.869 245.116 274.964 243.307 274.964 241.498C274.964 240.594 274.964 239.689 275.869 238.785C276.773 237.88 276.773 236.976 277.678 236.976C278.582 236.071 279.487 236.071 280.391 236.071C281.296 236.071 282.2 236.071 283.105 235.167C285.818 235.167 287.627 234.262 289.436 234.262C289.436 233.358 289.436 233.358 289.436 233.358C289.436 231.549 289.436 230.644 288.532 230.644C287.627 229.74 286.723 229.74 284.914 229.74C283.105 229.74 282.2 229.74 281.296 230.644C280.391 231.549 279.487 232.453 279.487 233.358L275.869 232.453C275.869 230.644 276.773 229.74 277.678 228.835C278.582 227.931 279.487 227.026 280.391 227.026C282.2 226.122 283.105 226.122 284.914 226.122C286.723 226.122 288.532 226.122 289.436 227.026C290.341 227.026 291.245 227.931 292.15 228.835C293.054 229.74 293.054 230.644 293.054 231.549C293.054 232.453 293.054 233.358 293.054 235.167V239.689C293.054 243.307 293.054 245.116 293.054 246.021C293.054 246.925 293.054 247.829 293.959 248.734H290.341C289.436 246.021 289.436 245.116 289.436 244.212ZM289.436 236.071C288.532 236.976 285.818 236.976 284.009 236.976C282.2 236.976 281.296 236.976 281.296 237.88C280.391 237.88 280.391 238.785 279.487 238.785C279.487 239.689 278.582 239.689 278.582 240.594C278.582 241.498 278.582 242.403 279.487 243.307C280.391 244.212 281.296 244.212 282.2 244.212C284.009 244.212 284.914 244.212 285.818 243.307C286.723 242.403 287.627 241.498 288.532 240.594C288.532 239.689 289.436 238.785 289.436 236.976V236.071Z" fill="black"/>
<path d="M298.481 246.925V226.122H302.099V228.835C303.908 226.122 305.717 225.218 308.43 225.218C309.335 225.218 311.144 225.218 312.048 226.122C312.953 227.027 313.857 227.027 314.762 227.931C315.666 228.835 315.666 229.74 315.666 230.644C315.666 231.549 315.666 232.453 315.666 234.262V246.925H312.048V234.262C312.048 232.453 312.048 231.549 312.048 230.644C312.048 229.74 311.144 229.74 310.239 228.835C309.335 228.835 308.43 227.931 307.526 227.931C305.717 227.931 304.812 228.835 303.908 229.74C303.003 230.644 302.099 232.453 302.099 235.167V246.925H298.481Z" fill="black"/>
<path d="M320.188 248.734L323.806 249.638C323.806 250.543 324.711 251.447 324.711 252.352C325.615 253.256 326.52 253.256 328.329 253.256C330.138 253.256 331.042 253.256 331.947 252.352C332.851 251.447 333.756 250.543 333.756 249.638C333.756 248.734 333.756 247.829 333.756 245.116C331.947 246.925 330.138 247.829 328.329 247.829C325.615 247.829 322.902 246.925 321.997 245.116C320.188 243.307 319.284 240.594 319.284 237.88C319.284 236.071 319.284 234.262 320.188 232.453C321.093 230.644 321.997 229.74 322.902 228.835C324.711 227.931 325.615 227.026 327.424 227.026C330.138 227.026 331.947 227.931 333.756 229.74V226.122H337.374V244.212C337.374 247.829 337.374 249.638 336.469 251.447C335.565 253.256 334.66 254.161 333.756 255.065C331.947 255.97 330.138 255.97 328.329 255.97C325.615 255.97 323.806 255.065 321.997 254.161C320.188 252.352 320.188 250.543 320.188 248.734ZM322.902 236.071C322.902 238.785 323.806 240.594 324.711 242.403C325.615 243.307 327.424 244.212 329.233 244.212C331.042 244.212 331.947 243.307 333.756 242.403C334.66 241.498 335.565 238.785 335.565 236.071C335.565 233.358 334.66 231.549 333.756 230.644C332.851 229.74 331.042 228.835 329.233 228.835C327.424 228.835 326.52 229.74 325.615 230.644C322.902 231.549 322.902 233.358 322.902 236.071Z" fill="black"/>
<path d="M342.801 222.503V218.885H346.419V222.503H342.801ZM342.801 246.925V226.121H346.419V246.925H342.801Z" fill="black"/>
<path d="M351.846 246.925V226.122H355.464V228.835C357.273 226.122 359.082 225.218 361.795 225.218C362.7 225.218 364.509 225.218 365.413 226.122C366.318 227.027 367.222 227.027 368.126 227.931C369.031 228.835 369.031 229.74 369.031 230.644C369.031 231.549 369.031 232.453 369.031 234.262V246.925H365.413V234.262C365.413 232.453 365.413 231.549 365.413 230.644C365.413 229.74 364.509 229.74 363.604 228.835C362.7 228.835 361.795 227.931 360.891 227.931C359.082 227.931 358.177 228.835 357.273 229.74C356.368 230.644 355.464 232.453 355.464 235.167V246.925H351.846Z" fill="black"/>
<path d="M373.553 248.734L377.171 249.638C377.171 250.543 378.076 251.447 378.076 252.352C378.98 253.256 379.885 253.256 381.694 253.256C383.503 253.256 384.407 253.256 385.312 252.352C386.216 251.447 387.121 250.543 387.121 249.638C387.121 248.734 387.121 247.829 387.121 245.116C385.312 246.925 383.503 247.829 381.694 247.829C378.98 247.829 376.267 246.925 375.362 245.116C373.553 243.307 372.649 240.594 372.649 237.88C372.649 236.071 372.649 234.262 373.553 232.453C374.458 230.644 375.362 229.74 376.267 228.835C378.076 227.931 378.98 227.026 380.789 227.026C383.503 227.026 385.312 227.931 387.121 229.74V226.122H390.739V244.212C390.739 247.829 390.739 249.638 389.834 251.447C388.93 253.256 388.025 254.161 387.121 255.065C385.312 255.97 383.503 255.97 381.694 255.97C378.98 255.97 377.171 255.065 375.362 254.161C374.458 252.352 373.553 250.543 373.553 248.734ZM376.267 236.071C376.267 238.785 377.171 240.594 378.076 242.403C378.98 243.307 380.789 244.212 382.598 244.212C384.407 244.212 385.312 243.307 387.121 242.403C388.025 241.498 388.93 238.785 388.93 236.071C388.93 233.358 388.025 231.549 387.121 230.644C386.216 229.74 384.407 228.835 382.598 228.835C380.789 228.835 379.885 229.74 378.98 230.644C377.171 231.549 376.267 233.358 376.267 236.071Z" fill="black"/>
<path d="M415.16 243.307L416.064 246.02C415.16 246.02 414.255 246.02 413.351 246.02C412.446 246.02 410.637 246.02 410.637 245.116C409.733 245.116 409.733 244.211 408.828 243.307C408.828 242.402 408.828 241.498 408.828 238.784V227.026H406.115V226.121H408.828V220.694L412.446 218.885V226.121H416.064V228.835H412.446V240.593C412.446 241.498 412.446 242.402 412.446 242.402C412.446 242.402 412.446 243.307 413.351 243.307H414.255C414.255 244.211 415.16 244.211 415.16 243.307Z" fill="black"/>
<path d="M418.777 246.925V217.981H422.395V227.931C424.204 226.122 426.013 225.217 428.727 225.217C430.536 225.217 431.44 225.217 432.345 226.122C433.249 227.026 434.154 227.931 435.058 228.835C435.963 229.74 435.963 231.548 435.963 233.357V246.925H432.345V233.357C432.345 231.548 432.345 230.644 431.44 229.74C430.536 228.835 429.631 228.835 427.822 228.835C426.918 228.835 426.013 228.835 425.109 229.74C424.204 230.644 423.3 230.644 423.3 231.549C423.3 232.453 422.395 233.357 422.395 235.166V246.925H418.777Z" fill="black"/>
<path d="M455.861 240.594L459.479 241.498C458.575 243.307 457.67 245.116 455.861 246.021C454.052 246.925 452.243 247.829 449.53 247.829C446.816 247.829 444.103 246.925 442.294 245.116C440.485 243.307 439.581 240.594 439.581 236.976C439.581 233.358 440.485 230.644 442.294 228.835C444.103 227.026 446.816 226.122 449.53 226.122C452.243 226.122 454.957 227.026 456.766 228.835C458.575 230.644 459.479 233.358 459.479 236.976V237.88H444.103C444.103 240.594 445.007 241.498 445.912 243.307C446.816 244.212 448.625 245.116 450.434 245.116C451.339 245.116 453.148 245.116 454.052 244.212C454.052 242.403 454.957 241.498 455.861 240.594ZM444.103 234.262H455.861C455.861 232.453 454.957 231.549 454.957 230.644C454.052 228.835 452.243 228.835 450.434 228.835C448.625 228.835 447.721 229.74 445.912 230.644C445.007 231.549 444.103 232.453 444.103 234.262Z" fill="black"/>
<path d="M478.474 246.925L472.142 226.122H475.76L479.378 237.88L480.283 242.403C480.283 242.403 480.283 240.594 481.187 237.88L484.805 226.122H488.423L491.137 237.88L492.041 241.498L492.946 237.88L497.468 226.122H501.086L494.755 246.925H491.137L487.519 234.262L486.614 230.644L482.092 246.925H478.474Z" fill="black"/>
<path d="M517.366 244.212C516.462 245.116 514.653 246.021 513.749 246.925C512.844 247.829 511.035 247.829 510.131 247.829C507.417 247.829 506.513 246.925 504.704 246.021C503.799 245.116 502.895 243.307 502.895 241.498C502.895 240.594 502.895 239.689 503.799 238.785C504.704 237.88 504.704 236.976 505.608 236.976C506.513 236.071 507.417 236.071 508.322 236.071C509.226 236.071 510.131 236.071 511.035 235.167C513.749 235.167 515.557 234.262 517.366 234.262C517.366 233.358 517.366 233.358 517.366 233.358C517.366 231.549 517.366 230.644 516.462 230.644C515.557 229.74 513.749 229.74 512.844 229.74C511.035 229.74 510.131 229.74 509.226 230.644C508.322 231.549 507.417 232.453 507.417 233.358L503.799 232.453C503.799 230.644 504.704 229.74 505.608 228.835C506.513 227.931 507.417 227.026 508.322 227.026C510.131 226.122 511.035 226.122 512.844 226.122C514.653 226.122 516.462 226.122 517.366 227.026C518.271 227.026 519.175 227.931 520.08 228.835C520.984 229.74 520.984 230.644 520.984 231.549C520.984 232.453 520.984 233.358 520.984 235.167V239.689C520.984 243.307 520.984 245.116 520.984 246.021C520.984 246.925 521.889 247.829 521.889 248.734H518.271C518.271 246.021 517.366 245.116 517.366 244.212ZM517.366 236.071C516.462 236.976 513.748 236.976 511.94 236.976C510.131 236.976 509.226 236.976 509.226 237.88C508.322 237.88 508.322 238.785 507.417 238.785C507.417 239.689 506.513 239.689 506.513 240.594C506.513 241.498 506.513 242.403 507.417 243.307C508.322 244.212 509.226 244.212 510.131 244.212C511.94 244.212 512.844 244.212 513.749 243.307C514.653 242.403 515.557 241.498 516.462 240.594C516.462 239.689 517.366 238.785 517.366 236.976V236.071Z" fill="black"/>
<path d="M526.412 255.065V251.447C527.316 251.447 528.221 251.447 528.221 251.447C529.125 251.447 530.029 251.447 530.029 251.447C530.934 251.447 530.934 250.543 530.934 250.543C530.934 250.543 531.838 249.638 531.838 247.829V246.925L524.603 226.122H528.221L532.743 237.88C533.647 239.689 533.647 240.594 534.552 242.403C534.552 240.594 535.456 238.785 536.361 237.88L540.883 226.122H544.501L536.361 246.925C535.456 249.638 534.552 250.543 534.552 251.447C533.647 252.352 533.647 253.256 532.743 254.161C531.838 255.065 530.934 255.065 530.029 255.065C527.316 255.065 527.316 255.065 526.412 255.065Z" fill="black"/>
<path d="M557.164 255.065V251.447C558.069 251.447 558.973 251.447 558.973 251.447C559.878 251.447 560.782 251.447 560.782 251.447C561.687 251.447 561.687 250.543 561.687 250.543C561.687 250.543 562.591 249.638 562.591 247.829V246.925L555.355 226.122H558.973L563.496 237.88C564.4 239.689 564.4 240.594 565.305 242.403C565.305 240.594 566.209 238.785 567.114 237.88L571.636 226.122H575.254L567.114 246.925C566.209 249.638 565.305 250.543 565.305 251.447C564.4 252.352 564.4 253.256 563.496 254.161C562.591 255.065 561.687 255.065 560.782 255.065C558.973 255.065 558.069 255.065 557.164 255.065Z" fill="black"/>
<path d="M576.158 236.071C576.158 232.453 577.063 229.74 579.776 227.931C581.585 226.122 583.394 225.218 586.108 225.218C588.821 225.218 591.535 226.122 593.344 227.931C595.153 229.74 596.057 232.453 596.057 236.071C596.057 238.785 596.057 240.594 595.153 242.403C594.248 244.212 593.344 245.116 591.535 246.021C589.726 246.925 587.917 246.925 586.108 246.925C583.394 246.925 580.681 246.021 578.872 244.212C577.063 242.403 576.158 239.689 576.158 236.071ZM579.776 236.071C579.776 238.785 580.681 240.594 581.585 242.403C582.49 243.307 584.299 244.212 586.108 244.212C587.917 244.212 589.726 243.307 590.63 242.403C591.535 241.498 592.439 238.785 592.439 236.071C592.439 233.358 591.535 231.549 590.63 230.644C589.726 229.74 587.917 228.835 586.108 228.835C584.299 228.835 582.49 229.74 581.585 230.644C580.681 231.549 579.776 233.358 579.776 236.071Z" fill="black"/>
<path d="M613.242 246.925V244.212C611.433 246.925 609.624 247.829 606.911 247.829C606.006 247.829 604.197 247.829 603.293 246.925C602.388 246.021 601.484 246.021 600.579 245.116C599.675 244.212 599.675 243.307 599.675 242.403C599.675 241.498 599.675 240.594 599.675 238.785V226.122H603.293V237.88C603.293 239.689 603.293 240.594 603.293 241.498C603.293 242.403 604.197 243.307 605.102 243.307C606.006 243.307 606.911 244.212 607.815 244.212C608.72 244.212 609.624 244.212 610.529 243.307C611.433 242.403 612.338 242.403 612.338 241.498C612.338 240.594 613.242 238.785 613.242 237.88V226.122H616.86V246.925H613.242Z" fill="black"/>
<path d="M646.709 238.785L650.326 239.689C650.326 242.403 649.422 244.212 647.613 245.116C645.804 246.925 643.995 246.925 642.186 246.925C639.473 246.925 636.759 246.021 634.95 244.212C633.141 242.403 632.237 239.689 632.237 236.071C632.237 234.262 632.237 231.549 633.141 229.74C634.046 227.931 634.95 227.027 636.759 226.122C638.568 225.218 640.377 225.218 642.186 225.218C644.9 225.218 646.709 226.122 647.613 227.027C649.422 227.931 650.326 229.74 650.326 231.549L646.709 232.453C646.709 230.644 645.804 229.74 644.9 229.74C643.995 228.835 643.091 228.835 642.186 228.835C640.377 228.835 638.568 229.74 637.664 230.644C636.759 231.549 635.855 234.262 635.855 236.976C635.855 239.689 636.759 241.498 637.664 243.307C638.568 244.212 640.377 244.212 642.186 244.212C643.995 244.212 644.9 244.212 645.804 243.307C646.709 242.403 646.709 240.594 646.709 238.785Z" fill="black"/>
<path d="M652.135 236.071C652.135 232.453 653.04 229.74 655.753 227.931C657.562 226.122 659.371 225.218 662.084 225.218C664.798 225.218 667.511 226.122 669.32 227.931C671.129 229.74 672.034 232.453 672.034 236.071C672.034 238.785 672.034 240.594 671.129 242.403C670.225 244.212 669.32 245.116 667.511 246.021C665.702 246.925 663.893 246.925 662.084 246.925C659.371 246.925 656.657 246.021 654.848 244.212C653.04 242.403 652.135 239.689 652.135 236.071ZM655.753 236.071C655.753 238.785 656.657 240.594 657.562 242.403C658.466 244.212 660.275 244.212 662.084 244.212C663.893 244.212 665.702 243.307 666.607 242.403C667.511 241.498 668.416 238.785 668.416 236.071C668.416 233.358 667.511 231.549 666.607 230.644C665.702 229.74 663.893 228.835 662.084 228.835C660.275 228.835 658.466 229.74 657.562 230.644C656.657 231.549 655.753 233.358 655.753 236.071Z" fill="black"/>
<path d="M675.652 246.925V226.122H679.27V228.835C681.079 226.122 682.888 225.218 685.601 225.218C686.506 225.218 688.315 225.218 689.219 226.122C690.124 227.027 691.028 227.027 691.933 227.931C692.837 228.835 692.837 229.74 692.837 230.644C692.837 231.549 692.837 232.453 692.837 234.262V246.925H689.219V234.262C689.219 232.453 689.219 231.549 689.219 230.644C689.219 229.74 688.315 229.74 687.41 228.835C686.506 228.835 685.601 227.931 684.697 227.931C682.888 227.931 681.984 228.835 681.079 229.74C680.175 230.644 679.27 232.453 679.27 235.167V246.925H675.652Z" fill="black"/>
<path d="M698.264 246.925V226.122H701.882V228.835C703.691 226.122 705.5 225.218 708.214 225.218C709.118 225.218 710.927 225.218 711.832 226.122C712.736 227.027 713.641 227.027 714.545 227.931C715.45 228.835 715.449 229.74 715.449 230.644C715.449 231.549 715.449 232.453 715.449 234.262V246.925H711.832V234.262C711.832 232.453 711.832 231.549 711.832 230.644C711.832 229.74 710.927 229.74 710.023 228.835C709.118 228.835 708.214 227.931 707.309 227.931C705.5 227.931 704.596 228.835 703.691 229.74C702.787 230.644 701.882 232.453 701.882 235.167V246.925H698.264Z" fill="black"/>
<path d="M735.348 240.594L738.966 241.498C738.062 243.307 737.157 245.116 735.348 246.021C733.539 246.925 731.73 247.829 729.017 247.829C726.303 247.829 723.59 246.925 721.781 245.116C719.972 243.307 719.067 240.594 719.067 236.976C719.067 233.358 719.972 230.644 721.781 228.835C723.59 227.026 726.303 226.122 729.017 226.122C731.73 226.122 734.444 227.026 736.253 228.835C738.062 230.644 738.966 233.358 738.966 236.976V237.88H723.59C723.59 240.594 724.494 241.498 725.399 243.307C726.303 244.212 728.112 245.116 729.921 245.116C730.826 245.116 732.635 245.116 733.539 244.212C733.539 242.403 734.444 241.498 735.348 240.594ZM723.59 234.262H735.348C735.348 232.453 734.444 231.549 734.444 230.644C733.539 228.835 731.73 228.835 729.921 228.835C728.112 228.835 727.208 229.74 725.399 230.644C724.494 231.549 723.59 232.453 723.59 234.262Z" fill="black"/>
<path d="M757.056 238.785L760.673 239.689C760.673 242.403 759.769 244.212 757.96 245.116C756.151 246.925 754.342 246.925 752.533 246.925C749.82 246.925 747.106 246.021 745.297 244.212C743.488 242.403 742.584 239.689 742.584 236.071C742.584 234.262 742.584 231.549 743.488 229.74C744.393 227.931 745.297 227.027 747.106 226.122C748.915 225.218 750.724 225.218 751.629 225.218C754.342 225.218 756.151 226.122 757.056 227.027C758.864 227.931 759.769 229.74 759.769 231.549L756.151 232.453C756.151 230.644 755.247 229.74 754.342 229.74C753.438 228.835 752.533 228.835 751.629 228.835C749.82 228.835 748.011 229.74 747.106 230.644C746.202 231.549 745.297 234.262 745.297 236.976C745.297 239.689 746.202 241.498 747.106 243.307C748.011 244.212 749.82 245.116 751.629 245.116C753.438 245.116 754.342 245.116 755.247 244.212C756.151 242.403 756.151 240.594 757.056 238.785Z" fill="black"/>
<path d="M770.623 243.307L771.528 246.02C770.623 246.02 769.719 246.02 768.814 246.02C767.91 246.02 766.101 246.02 766.101 245.116C765.196 245.116 765.196 244.211 764.292 243.307C764.292 242.402 764.292 241.498 764.292 238.784V227.026H761.578V226.121H764.292V220.694L767.91 218.885V226.121H771.528V228.835H767.91V240.593C767.91 241.498 767.91 242.402 767.91 242.402C767.91 242.402 767.91 243.307 768.814 243.307H769.719C769.719 244.211 770.623 244.211 770.623 243.307Z" fill="black"/>
</g>
<defs>
<clipPath id="clip0_61_421">
<rect width="774.241" height="282.2" fill="white"/>
</clipPath>
</defs>
</svg>
