<svg width="2652" height="356" viewBox="0 0 2652 356" fill="none" xmlns="http://www.w3.org/2000/svg">
<path fill-rule="evenodd" clip-rule="evenodd" d="M173.334 3.73389L159.809 30.7847C48.9003 -4.38177 -80.9431 114.642 65.1309 230.96L21.8496 322.933C240.961 420.315 376.214 196.054 224.73 63.2456L249.076 3.73389H173.334ZM124.642 101.116C107.51 100.215 87.2456 102.316 78.656 117.347C67.8357 136.282 94.8864 160.628 100.297 160.628L124.642 101.116ZM192.269 130.872L135.463 263.421C154.398 263.421 195.515 253.683 208.5 214.73C221.484 175.777 203.09 142.594 192.269 130.872Z" fill="#694BD6"/>
<path d="M405.216 91.8119V196.655C405.216 233.768 428.18 257.427 468.771 257.427C509.363 257.427 532.327 233.768 532.327 196.655V91.8119H501.709V198.047C501.709 217.763 489.879 230.056 468.771 230.056C447.664 230.056 435.834 217.763 435.834 198.047V91.8119H405.216ZM558.364 91.8119V254.179H588.981V120.574H591.765L628.877 254.179H683.155V91.8119H652.537V225.417H649.753L612.641 91.8119H558.364ZM765.567 88.5645C734.021 88.5645 709.202 106.657 709.202 135.651C709.202 165.109 729.15 176.707 762.784 184.129L764.871 184.593C786.211 189.232 798.272 193.871 798.272 208.021C798.272 220.082 788.994 230.52 769.278 230.52C744.691 230.52 733.325 217.067 733.325 197.119V192.944H703.171V198.047C703.171 236.087 728.686 257.427 768.35 257.427C802.912 257.427 828.426 239.102 828.426 206.397C828.426 176.939 808.71 165.109 775.309 157.687L773.221 157.223C753.737 152.816 739.356 150.032 739.356 134.723C739.356 123.59 749.33 115.471 765.567 115.471C784.123 115.471 795.953 123.59 795.953 142.146V147.017H825.643V140.058C825.643 107.585 800.36 88.5645 765.567 88.5645ZM838.531 91.8119L864.046 254.179H913.916L938.735 121.502H941.518L966.337 254.179H1016.21L1041.72 91.8119H1011.1L991.62 224.489H988.837L964.018 91.8119H916.235L891.416 224.489H888.633L869.149 91.8119H838.531ZM1120.13 91.8119V254.179H1175.8C1219.4 254.179 1242.6 232.608 1242.6 188.305V157.687C1242.6 113.384 1219.4 91.8119 1175.8 91.8119H1120.13ZM1150.74 119.646H1176.26C1202.47 119.646 1211.98 133.1 1211.98 156.759V189.232C1211.98 212.892 1202.47 226.345 1176.26 226.345H1150.74V119.646ZM1256.56 105.729C1256.56 117.559 1265.61 125.677 1277.21 125.677C1288.81 125.677 1297.85 117.559 1297.85 105.729C1297.85 93.8995 1288.81 85.7811 1277.21 85.7811C1265.61 85.7811 1256.56 93.8995 1256.56 105.729ZM1291.82 139.13H1262.59V254.179H1291.82V139.13ZM1403.69 139.13V155.367H1400.44C1394.41 145.625 1384.2 135.883 1363.79 135.883C1335.03 135.883 1310.91 160.47 1310.91 194.799C1310.91 229.128 1335.03 253.716 1363.79 253.716C1384.2 253.716 1394.41 243.973 1400.44 234.231H1403.22V249.076C1403.22 269.488 1389.54 278.767 1371.45 278.767C1354.05 278.767 1342.92 267.865 1336.89 256.035L1312.3 271.344C1323.9 289.436 1341.76 303.818 1373.3 303.818C1409.49 303.818 1432.45 281.782 1432.45 250.236V139.13H1403.69ZM1371.68 227.737C1354.05 227.737 1340.13 216.139 1340.13 194.799C1340.13 173.46 1354.05 161.862 1371.68 161.862C1389.77 161.862 1403.22 173.923 1403.22 194.799C1403.22 215.675 1389.77 227.737 1371.68 227.737ZM1452.5 105.729C1452.5 117.559 1461.55 125.677 1473.15 125.677C1484.74 125.677 1493.79 117.559 1493.79 105.729C1493.79 93.8995 1484.74 85.7811 1473.15 85.7811C1461.55 85.7811 1452.5 93.8995 1452.5 105.729ZM1487.76 139.13H1458.53V254.179H1487.76V139.13ZM1501.74 139.13V164.181H1530.97V231.912C1530.97 244.901 1540.71 254.179 1553.7 254.179H1585.24V229.128H1566.69C1562.51 229.128 1560.19 226.809 1560.19 222.17V164.181H1591.74V139.13H1560.19V103.41H1530.97V139.13H1501.74ZM1607.49 165.573L1631.15 180.882C1638.34 168.82 1647.85 160.934 1663.16 160.934C1678.94 160.934 1687.29 169.516 1687.29 180.418V183.202L1643.21 188.073C1621.18 190.392 1605.17 203.15 1605.17 221.474C1605.17 243.51 1622.34 257.427 1648.32 257.427C1672.67 257.427 1680.79 245.597 1684.5 237.943H1687.75V254.179H1716.51V180.65C1716.51 153.744 1696.1 135.883 1664.79 135.883C1636.72 135.883 1621.18 148.409 1607.49 165.573ZM1635.79 219.85C1635.79 213.124 1641.13 209.18 1652.03 207.789L1687.29 203.614V205.469C1687.29 221.242 1675.92 233.304 1655.51 233.304C1642.52 233.304 1635.79 227.737 1635.79 219.85ZM1770.23 91.8119H1741V254.179H1770.23V91.8119ZM1914.69 88.5645C1883.14 88.5645 1858.32 106.657 1858.32 135.651C1858.32 165.109 1878.27 176.707 1911.91 184.129L1913.99 184.593C1935.33 189.232 1947.39 193.871 1947.39 208.021C1947.39 220.082 1938.12 230.52 1918.4 230.52C1893.81 230.52 1882.45 217.067 1882.45 197.119V192.944H1852.29V198.047C1852.29 236.087 1877.81 257.427 1917.47 257.427C1952.03 257.427 1977.55 239.102 1977.55 206.397C1977.55 176.939 1957.83 165.109 1924.43 157.687L1922.34 157.223C1902.86 152.816 1888.48 150.032 1888.48 134.723C1888.48 123.59 1898.45 115.471 1914.69 115.471C1933.25 115.471 1945.07 123.59 1945.07 142.146V147.017H1974.76V140.058C1974.76 107.585 1949.48 88.5645 1914.69 88.5645ZM1991.82 196.655C1991.82 232.84 2018.26 257.427 2052.13 257.427C2085.99 257.427 2112.43 232.84 2112.43 196.655C2112.43 160.47 2085.99 135.883 2052.13 135.883C2018.26 135.883 1991.82 160.47 1991.82 196.655ZM2021.04 196.655C2021.04 175.779 2033.57 161.862 2052.13 161.862C2070.68 161.862 2083.21 175.779 2083.21 196.655C2083.21 217.531 2070.68 231.448 2052.13 231.448C2033.57 231.448 2021.04 217.531 2021.04 196.655ZM2124.56 196.655C2124.56 232.376 2151 257.427 2184.4 257.427C2216.64 257.427 2236.82 239.566 2242.39 213.356L2213.63 206.165C2210.61 221.242 2202.49 231.448 2184.86 231.448C2166.08 231.448 2153.78 217.531 2153.78 196.655C2153.78 175.779 2167.24 161.862 2184.86 161.862C2202.49 161.862 2211.54 173.46 2213.63 187.377L2242.39 179.954C2236.36 153.744 2216.41 135.883 2184.4 135.883C2151 135.883 2124.56 160.934 2124.56 196.655ZM2254.37 105.729C2254.37 117.559 2263.42 125.677 2275.02 125.677C2286.61 125.677 2295.66 117.559 2295.66 105.729C2295.66 93.8995 2286.61 85.7811 2275.02 85.7811C2263.42 85.7811 2254.37 93.8995 2254.37 105.729ZM2289.63 139.13H2260.4V254.179H2289.63V139.13ZM2308.71 195.727C2308.71 231.448 2333.53 257.427 2367.86 257.427C2398.71 257.427 2412.17 241.19 2420.05 229.128L2396.16 215.211C2392.22 223.33 2383.64 232.376 2367.4 232.376C2350.7 232.376 2339.8 220.546 2338.64 205.237H2422.37V193.871C2422.37 159.31 2399.87 135.883 2366.47 135.883C2332.61 135.883 2308.71 160.934 2308.71 195.727ZM2338.87 184.825C2341.19 170.676 2349.77 160.934 2366.24 160.934C2381.32 160.934 2390.59 170.212 2392.68 184.825H2338.87ZM2427.29 139.13V164.181H2456.52V231.912C2456.52 244.901 2466.26 254.179 2479.25 254.179H2510.79V229.128H2492.24C2488.06 229.128 2485.74 226.809 2485.74 222.17V164.181H2517.29V139.13H2485.74V103.41H2456.52V139.13H2427.29ZM2618.87 139.13L2588.71 221.706H2585.93L2555.77 139.13H2524.23L2572.01 261.602L2555.77 300.57H2587.32L2650.41 139.13H2618.87Z" fill="#694BD6"/>
</svg>
