<svg width="2004" height="2422" viewBox="0 0 2004 2422" fill="none" xmlns="http://www.w3.org/2000/svg">
<rect width="2004" height="2422" fill="white"/>
<path d="M1321.52 1634.51C1439.47 1389.74 1609.21 1613 1679.34 1755.23C1741.12 1909.58 1515.22 1957.07 1394.54 1961.52C1314.12 1961.52 1174.08 1940.46 1321.52 1634.51Z" stroke="#FF7300" stroke-width="87.4526" stroke-linecap="round"/>
<circle cx="939.302" cy="1052.8" r="323.458" transform="rotate(73.4217 939.302 1052.8)" fill="#F9AE75" fill-opacity="0.4"/>
<circle cx="929.304" cy="1065.8" r="382.152" transform="rotate(73.4217 929.304 1065.8)" fill="#F9AE75" fill-opacity="0.4"/>
<circle cx="936.66" cy="1052.19" r="259.629" transform="rotate(73.4217 936.66 1052.19)" fill="#FF7300"/>
<path d="M944.138 882.843C928.443 907.176 873.878 914.682 861.034 871.537" stroke="#413D45" stroke-width="14.6565" stroke-linecap="round"/>
<path d="M991.639 935.995C981.227 966.533 939.452 966.165 928.697 930.038" stroke="#413D45" stroke-width="14.6565" stroke-linecap="round"/>
<path d="M1063.48 886.436C1051.59 912.834 1001.3 928.088 983.245 882.125" stroke="#413D45" stroke-width="14.6565" stroke-linecap="round"/>
<path d="M990.029 570.345C1030.79 560.953 1055.5 531.654 1062.76 518.178C1393.79 543.886 1331.45 321.286 1180.01 244.011C1028.56 166.736 897.974 198.743 830.839 321.752C777.131 420.159 908.468 478.188 980.85 494.901C1002.92 513.976 996.163 553.145 990.029 570.345Z" stroke="#F1F1F1" stroke-width="40" stroke-linecap="round" stroke-linejoin="round"/>
<path d="M1466.45 936.256C1505.05 952.371 1542.2 942.954 1555.95 936.231C1810.02 1149.98 1889.04 932.742 1810.97 781.706C1732.91 630.67 1608.12 580.602 1481.89 641.465C1380.91 690.156 1453.85 813.837 1502.94 869.591C1509.76 897.949 1481.45 925.85 1466.45 936.256Z" stroke="#F1F1F1" stroke-width="40" stroke-linecap="round" stroke-linejoin="round"/>
<path d="M456.023 734.092C414.249 736.311 382.416 714.966 371.721 704.017C60.6338 820.056 59.1407 588.896 183.384 472.838C307.628 356.78 441.981 351.515 540.448 451.227C619.221 530.997 508.992 623.009 444.031 659.044C428.084 683.466 445.381 719.252 456.023 734.092Z" stroke="#F1F1F1" stroke-width="40" stroke-linecap="round" stroke-linejoin="round"/>
<path fill-rule="evenodd" clip-rule="evenodd" d="M636.316 1708.89C701.302 1721.16 756.782 1748.56 810.205 1787.54C878.713 1837.53 973.968 1877.05 982.419 1961.43C991.088 2047.99 916.769 2119.6 848.912 2174.03C788.818 2222.23 713.036 2232.05 636.316 2239.07C547.847 2247.16 448.032 2275.04 380.909 2216.84C311.92 2157.02 315.99 2052.74 316.098 1961.43C316.207 1870.27 309.938 1763.08 381.515 1706.63C450.846 1651.95 549.551 1692.52 636.316 1708.89Z" fill="#FFE9D7"/>
</svg>
